<?xml version="1.0" encoding="UTF-8"?>
<svg width="285px" height="519px" viewBox="0 0 285 519" version="1.1" xmlns="http://www.w3.org/2000/svg" xmlns:xlink="http://www.w3.org/1999/xlink">
    <!-- Generator: Sketch 50 (54983) - http://www.bohemiancoding.com/sketch -->
    <title>graphics / hero 4 - l</title>
    <desc>Created with Sketch.</desc>
    <defs></defs>
    <g id="graphics-/-hero-4---l" stroke="none" stroke-width="1" fill="none" fill-rule="evenodd">
        <path d="M105.626296,447.832814 C44.8272625,435.436342 -9.4356762,394.50505 1.38492478,328.514745 C12.2055258,262.524439 42.3063669,243.195842 105.33267,224.515798 C168.358972,205.835754 228.583411,265.775615 228.583411,328.514745 C228.583411,391.253874 166.42533,460.229286 105.626296,447.832814 Z" id="Oval-6" fill="#FD6F77" style="mix-blend-mode: multiply;"></path>
        <path d="M236.36215,264.327619 C227.578704,262.53674 219.739508,256.623524 221.302726,247.090112 C222.865945,237.5567 227.214518,234.764359 236.31973,232.065711 C245.424942,229.367064 254.125378,238.026388 254.125378,247.090112 C254.125378,256.153837 245.145595,266.118498 236.36215,264.327619 Z" id="Oval-6" fill="#E82D55" style="mix-blend-mode: multiply;"></path>
        <path d="M235.197395,215.159034 C218.241691,211.701892 203.108781,200.286927 206.126442,181.883475 C209.144104,163.480023 217.538661,158.089642 235.115508,152.88013 C252.692355,147.670618 269.487815,164.386715 269.487815,181.883475 C269.487815,199.380235 252.153099,218.616177 235.197395,215.159034 Z" id="Oval-6" fill="#FB7242" style="mix-blend-mode: multiply;"></path>
        <path d="M257.732691,335.228877 C244.776916,332.58729 233.21393,323.865168 235.519711,309.803176 C237.825492,295.741184 244.239734,291.622419 257.670121,287.641855 C271.100509,283.661291 283.933842,296.433983 283.933842,309.803176 C283.933842,323.172369 270.688465,337.870463 257.732691,335.228877 Z" id="Oval-6" fill="#F5F400" style="mix-blend-mode: multiply;"></path>
        <path d="M235.391126,118.529798 C226.377577,116.692002 218.333015,110.623876 219.937185,100.840714 C221.541356,91.057552 226.003851,88.1920583 235.347595,85.4227136 C244.69134,82.653369 253.619703,91.5395437 253.619703,100.840714 C253.619703,110.141885 244.404674,120.367594 235.391126,118.529798 Z" id="Oval-6" fill="#1F88E9" style="mix-blend-mode: multiply;"></path>
        <path d="M132.671488,237.52074 C86.1095856,228.027114 33.6811532,206.353848 41.9679259,155.816299 C50.2546985,105.27875 73.306914,90.4762732 121.574533,76.1704804 C169.842151,61.8646876 215.96401,107.768607 215.96401,155.816299 C215.96401,203.863991 179.233391,247.014367 132.671488,237.52074 Z" id="Oval-6" fill="#AFF0FC" style="mix-blend-mode: multiply;"></path>
        <path d="M74.7353611,18.8998811 C78.6460889,16.4446195 152.514348,18.6331797 155.858168,22.1069995 C159.201988,25.5808194 159.201988,89.7982391 155.858168,92.7051509 C152.514348,95.6120626 74.3212368,96.7525799 71.504119,92.7051509 C68.6870012,88.6577219 70.8246334,21.3551427 74.7353611,18.8998811 Z" id="Path-2" fill="#F5F200" style="mix-blend-mode: multiply;"></path>
        <path d="M169.912691,403.708478 C172.704224,401.955878 225.43244,403.518103 227.819306,405.997765 C230.206172,408.477427 230.206172,454.316736 227.819306,456.391731 C225.43244,458.466726 169.617083,459.280843 167.606184,456.391731 C165.595286,453.502619 167.121158,405.461079 169.912691,403.708478 Z" id="Path-2" fill="#1F88E9" style="mix-blend-mode: multiply;"></path>
        <path d="M160.136362,195.497825 C177.591738,195.497825 191.742115,178.947684 191.742115,162.087255 C191.742115,145.226826 178.312322,131.396965 160.136362,133.862062 C141.960403,136.327159 128.530609,145.226826 128.530609,162.087255 C128.530609,178.947684 142.680987,195.497825 160.136362,195.497825 Z" id="Oval-3" fill="#FFFFFF"></path>
        <path d="M237.083644,192.675781 C243.625733,192.675781 248.929145,186.472964 248.929145,180.153854 C248.929145,173.834743 243.895801,168.651458 237.083644,169.57535 C230.271487,170.499243 225.238142,173.834743 225.238142,180.153854 C225.238142,186.472964 230.541554,192.675781 237.083644,192.675781 Z" id="Oval-3" fill="#FFFFFF"></path>
    </g>
</svg>