<?xml version="1.0" encoding="UTF-8"?>
<svg width="285px" height="519px" viewBox="0 0 285 519" version="1.1" xmlns="http://www.w3.org/2000/svg" xmlns:xlink="http://www.w3.org/1999/xlink">
    <!-- Generator: Sketch 50 (54983) - http://www.bohemiancoding.com/sketch -->
    <title>graphics / hero 3 - r</title>
    <desc>Created with Sketch.</desc>
    <defs></defs>
    <g id="graphics-/-hero-3---r" stroke="none" stroke-width="1" fill="none" fill-rule="evenodd">
        <path d="M178.686678,430.04781 C225.816589,439.657249 274,386.189211 274,337.555386 C274,288.92156 227.315501,242.457659 178.459066,256.937968 C129.602631,271.418277 106.269202,286.401329 97.8813387,337.555386 C89.4934758,388.709442 131.556767,420.43837 178.686678,430.04781 Z" id="Oval-6" fill="#0CBA52" style="mix-blend-mode: multiply;" transform="translate(185.403890, 342.713618) rotate(28.000000) translate(-185.403890, -342.713618) "></path>
        <path d="M50.4830103,345.394921 C75.7131351,350.539156 101.507231,321.916033 101.507231,295.880815 C101.507231,269.845598 76.5155497,244.972009 50.3611623,252.723774 C24.2067749,260.47554 11.7156557,268.496439 7.22536866,295.880815 C2.73508163,323.265192 25.2528854,340.250686 50.4830103,345.394921 Z" id="Oval-6" fill="#E82D55" style="mix-blend-mode: multiply;" transform="translate(54.078945, 298.642180) rotate(28.000000) translate(-54.078945, -298.642180) "></path>
        <path d="M36.0900819,247.366897 C49.2337253,250.046788 62.6711698,235.135561 62.6711698,221.572504 C62.6711698,208.009447 49.6517435,195.051542 36.0266052,199.089827 C22.4014669,203.128112 15.8942135,207.306602 13.5549967,221.572504 C11.2157799,235.838406 22.9464386,244.687005 36.0900819,247.366897 Z" id="Oval-6" fill="#FB7242" style="mix-blend-mode: multiply;" transform="translate(37.963385, 223.011038) rotate(28.000000) translate(-37.963385, -223.011038) "></path>
        <path d="M44.4107475,406.840574 C54.4537445,408.888267 64.7212334,397.494667 64.7212334,387.131198 C64.7212334,376.76773 54.7731502,366.866654 44.3622452,369.952289 C33.9513403,373.037924 28.9791781,376.230689 27.1917935,387.131198 C25.4044088,398.031708 34.3677506,404.792882 44.4107475,406.840574 Z" id="Oval-6" fill="#F5F400" style="mix-blend-mode: multiply;" transform="translate(45.842130, 388.230375) rotate(28.000000) translate(-45.842130, -388.230375) "></path>
        <path d="M116.012969,468.146027 C131.278588,471.258573 146.88544,453.940003 146.88544,438.187259 C146.88544,422.434516 131.764093,407.384621 115.939245,412.074867 C100.114396,416.765113 92.5565797,421.6182 89.8397081,438.187259 C87.1228366,454.756319 100.747351,465.033481 116.012969,468.146027 Z" id="Oval-6" fill="#1F88E9" style="mix-blend-mode: multiply;" transform="translate(118.188708, 439.858037) rotate(28.000000) translate(-118.188708, -439.858037) "></path>
        <path d="M171.590947,292.896895 C227.554193,304.307386 271.701115,252.44449 271.701115,194.695458 C271.701115,136.946426 216.266762,81.7740171 158.253398,98.9683016 C100.240034,116.162586 72.5333306,133.95384 62.5733704,194.695458 C52.6134102,255.437077 115.627701,281.486405 171.590947,292.896895 Z" id="Oval-6" fill="#AFF0FC" style="mix-blend-mode: multiply;" transform="translate(166.613981, 195.130480) rotate(28.000000) translate(-166.613981, -195.130480) "></path>
        <path d="M172.041483,42.2574784 C176.739483,39.3079458 265.478231,41.937087 269.495198,46.1102248 C273.512165,50.2833626 273.512165,127.428451 269.495198,130.920556 C265.478231,134.412661 171.543991,135.782777 168.159756,130.920556 C164.775522,126.058335 167.343483,45.207011 172.041483,42.2574784 Z" id="Path-2" fill="#F5F200" style="mix-blend-mode: multiply;"></path>
        <path d="M189.058441,384.673242 C192.074064,382.779952 249.035025,384.467585 251.613496,387.146301 C254.191967,389.825017 254.191967,439.344066 251.613496,441.58563 C249.035025,443.827195 188.739104,444.706666 186.566781,441.58563 C184.394457,438.464595 186.042819,386.566533 189.058441,384.673242 Z" id="Path-2" fill="#FD6F77" style="mix-blend-mode: multiply;" transform="translate(219.560952, 413.738012) rotate(-45.000000) translate(-219.560952, -413.738012) "></path>
        <path d="M139.238238,386.722739 C152.769214,386.722739 163.738238,373.893478 163.738238,360.823689 C163.738238,347.753901 153.327793,337.033334 139.238238,338.944216 C125.148682,340.855098 114.738238,347.753901 114.738238,360.823689 C114.738238,373.893478 125.707261,386.722739 139.238238,386.722739 Z" id="Oval-3" fill="#FFFFFF"></path>
        <path d="M198.25598,83.2497638 C205.353993,83.2497638 211.10807,76.5198531 211.10807,69.6637673 C211.10807,62.8076815 205.64701,57.1839389 198.25598,58.1863402 C190.86495,59.1887415 185.40389,62.8076815 185.40389,69.6637673 C185.40389,76.5198531 191.157966,83.2497638 198.25598,83.2497638 Z" id="Oval-3" fill="#FFFFFF"></path>
    </g>
</svg>