<?xml version="1.0" encoding="UTF-8"?>
<svg width="211px" height="44px" viewBox="0 0 211 44" version="1.1" xmlns="http://www.w3.org/2000/svg" xmlns:xlink="http://www.w3.org/1999/xlink">
    <!-- Generator: Sketch 50 (54983) - http://www.bohemiancoding.com/sketch -->
    <title>graphics / logo-cottageclass 4</title>
    <desc>Created with Sketch.</desc>
    <defs>
        <polygon id="path-1" points="0 33.5794687 210.740349 33.5794687 210.740349 0 0 0"></polygon>
    </defs>
    <g id="graphics-/-logo-cottageclass-4" stroke="none" stroke-width="1" fill="none" fill-rule="evenodd">
        <g id="Group" transform="translate(0.000000, 4.159370)">
            <path d="M46.2628461,17.4768578 C46.2628461,12.1734391 50.3109504,8.30358193 55.7691026,8.30358193 C58.5368621,8.30358193 60.9450935,9.25170453 62.5857249,11.0971304 L60.9193046,12.7112143 C59.5358041,11.250347 57.8451118,10.5843857 55.8714998,10.5843857 C51.822637,10.5843857 48.8250526,13.5053618 48.8250526,17.4768578 C48.8250526,21.4483537 51.822637,24.3700883 55.8714998,24.3700883 C57.8451118,24.3700883 59.5358041,23.6783381 60.9193046,22.2174708 L62.5857249,23.8323132 C60.9450935,25.6769805 58.5368621,26.6508921 55.7433136,26.6508921 C50.3109504,26.6508921 46.2628461,22.7810349 46.2628461,17.4768578" id="Fill-1" fill="#000000"></path>
            <path d="M75.7050111,19.6553401 C75.7050111,16.7601529 73.757188,14.8889381 71.1434036,14.8889381 C68.5296192,14.8889381 66.5567657,16.7601529 66.5567657,19.6553401 C66.5567657,22.5505273 68.5296192,24.4467725 71.1434036,24.4467725 C73.757188,24.4467725 75.7050111,22.5505273 75.7050111,19.6553401 M64.0711675,19.6553401 C64.0711675,15.6064773 67.0687519,12.7370791 71.1434036,12.7370791 C75.2172969,12.7370791 78.1898508,15.6064773 78.1898508,19.6553401 C78.1898508,23.7042029 75.2172969,26.5993901 71.1434036,26.5993901 C67.0687519,26.5993901 64.0711675,23.7042029 64.0711675,19.6553401" id="Fill-3" fill="#000000"></path>
            <path d="M89.2335071,25.651495 C88.4909375,26.2924259 87.3630508,26.5996176 86.2609531,26.5996176 C83.519741,26.5996176 81.955718,25.0879309 81.955718,22.3459604 L81.955718,14.8891657 L79.6498838,14.8891657 L79.6498838,12.8654928 L81.955718,12.8654928 L81.955718,9.89293881 L84.4155273,9.89293881 L84.4155273,12.8654928 L88.3111734,12.8654928 L88.3111734,14.8891657 L84.4155273,14.8891657 L84.4155273,22.2435631 C84.4155273,23.7044304 85.1846443,24.5243669 86.5431144,24.5243669 C87.2598951,24.5243669 87.9524038,24.2930249 88.46439,23.883436 L89.2335071,25.651495 Z" id="Fill-5" fill="#000000"></path>
            <path d="M100.021398,25.651495 C99.2788282,26.2924259 98.1509415,26.5996176 97.0488438,26.5996176 C94.3076317,26.5996176 92.7436087,25.0879309 92.7436087,22.3459604 L92.7436087,14.8891657 L90.4377745,14.8891657 L90.4377745,12.8654928 L92.7436087,12.8654928 L92.7436087,9.89293881 L95.203418,9.89293881 L95.203418,12.8654928 L99.0990641,12.8654928 L99.0990641,14.8891657 L95.203418,14.8891657 L95.203418,22.2435631 C95.203418,23.7044304 95.972535,24.5243669 97.3310051,24.5243669 C98.0477858,24.5243669 98.7402945,24.2930249 99.2522807,23.883436 L100.021398,25.651495 Z" id="Fill-7" fill="#000000"></path>
            <path d="M110.782589,22.2945342 L110.782589,20.398289 L106.990857,20.398289 C104.556079,20.398289 103.864328,21.3464116 103.864328,22.5000872 C103.864328,23.8577987 104.991456,24.7035241 106.862671,24.7035241 C108.707339,24.7035241 110.167447,23.8577987 110.782589,22.2945342 M113.242399,18.2456714 L113.242399,26.4457942 L110.910776,26.4457942 L110.910776,24.6519462 C110.090839,25.8814716 108.579152,26.5997693 106.452324,26.5997693 C103.377373,26.5997693 101.430308,24.9598965 101.430308,22.6017259 C101.430308,20.4240779 102.838839,18.6302299 106.887702,18.6302299 L110.782589,18.6302299 L110.782589,18.1432742 C110.782589,16.0680234 109.578094,14.8635285 107.144074,14.8635285 C105.52999,14.8635285 103.890117,15.4270925 102.838839,16.3243958 L101.814867,14.4789699 C103.223397,13.3518418 105.247829,12.7366998 107.426235,12.7366998 C111.142117,12.7366998 113.242399,14.5305478 113.242399,18.2456714" id="Fill-9" fill="#000000"></path>
            <path d="M127.438449,19.2967981 C127.438449,16.6572247 125.491384,14.8884072 122.775203,14.8884072 C120.033232,14.8884072 118.086167,16.6572247 118.086167,19.2967981 C118.086167,21.909824 120.033232,23.7294609 122.775203,23.7294609 C125.491384,23.7294609 127.438449,21.909824 127.438449,19.2967981 Z M129.847439,12.8654928 L129.847439,24.6002167 C129.847439,29.3931661 127.413418,31.5708141 122.800992,31.5708141 C120.314635,31.5708141 117.804006,30.8790638 116.318108,29.5463827 L117.496814,27.6501375 C118.752129,28.7264462 120.724982,29.4181965 122.723625,29.4181965 C125.926762,29.4181965 127.387629,27.9322987 127.387629,24.856589 L127.387629,23.7802802 C126.208923,25.1903282 124.440864,25.8820784 122.493041,25.8820784 C118.573123,25.8820784 115.600569,23.2167162 115.600569,19.2967981 C115.600569,15.3761215 118.573123,12.7373066 122.493041,12.7373066 C124.517473,12.7373066 126.36214,13.4798762 127.515816,14.965774 L127.515816,12.8654928 L129.847439,12.8654928 Z" id="Fill-11" fill="#000000"></path>
            <path d="M134.715252,18.7072175 L143.427361,18.7072175 C143.170989,16.4264138 141.454507,14.8123298 139.071306,14.8123298 C136.713894,14.8123298 134.971624,16.4006248 134.715252,18.7072175 M145.733195,20.4752765 L134.715252,20.4752765 C135.022444,22.8584775 136.944478,24.4467725 139.63487,24.4467725 C141.223924,24.4467725 142.556605,23.9082389 143.555547,22.8068996 L144.913259,24.3959531 C143.683733,25.8310315 141.812518,26.5993901 139.558262,26.5993901 C135.176419,26.5993901 132.255443,23.7042029 132.255443,19.6553401 C132.255443,15.6322663 135.15063,12.7370791 139.071306,12.7370791 C142.991983,12.7370791 145.784773,15.555658 145.784773,19.7327069 C145.784773,19.9367429 145.759742,20.2446931 145.733195,20.4752765" id="Fill-13" fill="#000000"></path>
            <path d="M147.578621,17.4768578 C147.578621,12.1734391 151.626725,8.30358193 157.084877,8.30358193 C159.852637,8.30358193 162.260868,9.25170453 163.9015,11.0971304 L162.235079,12.7112143 C160.851579,11.250347 159.160887,10.5843857 157.187275,10.5843857 C153.138412,10.5843857 150.140827,13.5053618 150.140827,17.4768578 C150.140827,21.4483537 153.138412,24.3700883 157.187275,24.3700883 C159.160887,24.3700883 160.851579,23.6783381 162.235079,22.2174708 L163.9015,23.8323132 C162.260868,25.6769805 159.852637,26.6508921 157.059088,26.6508921 C151.626725,26.6508921 147.578621,22.7810349 147.578621,17.4768578" id="Fill-15" fill="#000000"></path>
            <mask id="mask-2" fill="white">
                <use xlink:href="#path-1"></use>
            </mask>
            <g id="Clip-18"></g>
            <path d="M21.8634797,16.2784308 C21.7140556,17.8394198 20.9866559,18.9779255 19.6630768,20.5540845 C18.3387391,22.131002 18.1445636,22.3767554 18.1445636,22.3767554 C18.1445636,22.3767554 17.8555758,22.2553957 15.9358172,21.5105506 C14.0153,20.7672224 12.8297675,20.1194651 11.9468758,18.8239504 C10.9835832,17.4116269 11.1292148,15.4251204 12.631041,14.5369192 C14.424889,13.4772974 16.1277172,14.5209907 16.5464082,16.1555541 C16.1277172,14.5209907 17.1152817,12.7863056 19.1981175,12.8507779 C20.942663,12.9061483 22.0265568,14.5763611 21.8634797,16.2784308 Z M31.3098149,15.8832533 L33.3668617,12.4047811 L15.8781713,2.06190119 L15.8804468,2.0573502 L12.4027331,0.000303399234 L12.3996991,0.00409588965 L12.3966651,0.0018203954 L10.3396183,3.48029261 L10.3434108,3.4825681 L0.000530948659,20.9712584 L3.47824466,23.0275467 L5.07336613,20.331086 L8.47523004,33.5797721 L32.0144596,27.5360593 L28.6118372,14.2873733 L31.3098149,15.8832533 Z" id="Fill-22" fill="#000000" mask="url(#mask-2)"></path>
            <path d="M186.423507,25.0107158 L187.448997,23.0636512 C188.601914,23.8835877 190.446581,24.4729407 192.21464,24.4729407 C194.495444,24.4729407 195.443567,23.7804319 195.443567,22.6275148 C195.443567,19.5783525 186.858885,22.2171674 186.858885,16.810593 C186.858885,14.3765727 189.037292,12.7366998 192.52259,12.7366998 C194.29065,12.7366998 196.289292,13.1978667 197.467998,13.9662252 L196.417478,15.9140483 C195.187194,15.1199008 193.829483,14.8377395 192.496802,14.8377395 C190.344184,14.8377395 189.293664,15.6326455 189.293664,16.7089543 C189.293664,19.9113332 197.903376,17.2975488 197.903376,22.5766955 C197.903376,25.0365048 195.648361,26.5997693 192.034876,26.5997693 C189.78062,26.5997693 187.550636,25.9080191 186.423507,25.0107158" id="Fill-20" fill="#000000" mask="url(#mask-2)"></path>
            <path d="M199.260936,25.0107158 L200.286425,23.0636512 C201.439342,23.8835877 203.28401,24.4729407 205.052069,24.4729407 C207.332872,24.4729407 208.280995,23.7804319 208.280995,22.6275148 C208.280995,19.5783525 199.696314,22.2171674 199.696314,16.810593 C199.696314,14.3765727 201.87472,12.7366998 205.360019,12.7366998 C207.128078,12.7366998 209.12672,13.1978667 210.305426,13.9662252 L209.254907,15.9140483 C208.024623,15.1199008 206.666911,14.8377395 205.33423,14.8377395 C203.181612,14.8377395 202.131093,15.6326455 202.131093,16.7089543 C202.131093,19.9113332 210.740804,17.2975488 210.740804,22.5766955 C210.740804,25.0365048 208.485789,26.5997693 204.872305,26.5997693 C202.618048,26.5997693 200.388064,25.9080191 199.260936,25.0107158" id="Fill-21" fill="#000000" mask="url(#mask-2)"></path>
            <polygon id="Fill-17" fill="#000000" mask="url(#mask-2)" points="166.693607 26.4450357 169.153416 26.4450357 169.153416 7.43252273 166.693607 7.43252273"></polygon>
            <path d="M181.631772,22.2945342 L181.631772,20.398289 L177.84004,20.398289 C175.405261,20.398289 174.713511,21.3464116 174.713511,22.5000872 C174.713511,23.8577987 175.840639,24.7035241 177.711854,24.7035241 C179.556521,24.7035241 181.01663,23.8577987 181.631772,22.2945342 M184.091581,18.2456714 L184.091581,26.4457942 L181.759958,26.4457942 L181.759958,24.6519462 C180.940021,25.8814716 179.428335,26.5997693 177.301506,26.5997693 C174.226555,26.5997693 172.27949,24.9598965 172.27949,22.6017259 C172.27949,20.4240779 173.688021,18.6302299 177.736884,18.6302299 L181.631772,18.6302299 L181.631772,18.1432742 C181.631772,16.0680234 180.428035,14.8635285 177.993256,14.8635285 C176.379172,14.8635285 174.7393,15.4270925 173.688021,16.3243958 L172.664049,14.4789699 C174.07258,13.3518418 176.097011,12.7366998 178.275418,12.7366998 C181.9913,12.7366998 184.091581,14.5305478 184.091581,18.2456714" id="Fill-19" fill="#000000" mask="url(#mask-2)"></path>
        </g>
    </g>
</svg>