<?xml version="1.0" encoding="UTF-8"?>
<svg width="250px" height="497px" viewBox="0 0 250 497" version="1.1" xmlns="http://www.w3.org/2000/svg" xmlns:xlink="http://www.w3.org/1999/xlink">
    <!-- Generator: Sketch 50.2 (55047) - http://www.bohemiancoding.com/sketch -->
    <title>graphics / mission R</title>
    <desc>Created with Sketch.</desc>
    <defs></defs>
    <g id="graphics-/-mission-R" stroke="none" stroke-width="1" fill="none" fill-rule="evenodd">
        <g id="Group-7">
            <path d="M119.417729,494.8972 C72.5472304,485.340653 30.7154638,453.786368 39.0571582,402.913873 C47.3988527,352.041378 70.6038503,337.140796 119.19137,322.74019 C167.778889,308.339583 214.206428,354.547738 214.206428,402.913873 C214.206428,451.280008 166.288228,504.453747 119.417729,494.8972 Z" id="Oval-6" fill="#1F88E9"></path>
            <path d="M68.5841897,108.525467 C74.2834085,104.947342 181.933799,108.136795 186.806846,113.199295 C191.679893,118.261795 191.679893,211.847733 186.806846,216.084061 C181.933799,220.320389 67.9806741,221.982498 63.8752053,216.084061 C59.7697366,210.185623 62.884971,112.103592 68.5841897,108.525467 Z" id="Path-2" fill="#E8E8E8"></path>
            <path d="M90.157607,0.499888163 C92.0252134,-0.672646039 127.301724,0.372522276 128.898598,2.03147896 C130.495472,3.69043565 130.495472,34.3580933 128.898598,35.7463175 C127.301724,37.1345417 89.9598379,37.6792069 88.6144957,35.7463175 C87.2691535,33.8134282 88.2900007,1.67242237 90.157607,0.499888163 Z" id="Path-2" fill="#E8E8E8"></path>
            <path d="M139.469686,46.2696844 C140.922189,46.6017724 157.277063,63.9553572 157.247402,65.5109111 C157.21774,67.0664651 142.565504,81.7187007 141.1393,81.6190131 C139.713095,81.5193256 121.611853,63.9385387 121.892569,62.3722821 C122.173284,60.8060256 138.017183,45.9375964 139.469686,46.2696844 Z" id="Path-2" fill="#E8E8E8"></path>
            <path d="M39.9867118,310.878646 C17.477948,306.289276 -2.61104991,291.135864 1.39490767,266.705209 C5.40086526,242.274555 16.5446726,235.118803 39.8780065,228.203155 C63.2113404,221.287507 85.5073798,243.478192 85.5073798,266.705209 C85.5073798,289.932227 62.4954756,315.468016 39.9867118,310.878646 Z" id="Oval-6" fill="#64426B"></path>
            <path d="M173.427425,319.62115 C135.725378,311.933982 102.076424,286.552107 108.78638,245.630904 C115.496335,204.709701 134.162147,192.723858 173.245344,181.140189 C212.328541,169.55652 249.674276,206.725786 249.674276,245.630904 C249.674276,284.536023 211.129472,327.308318 173.427425,319.62115 Z" id="Oval-6" fill="#0CBA52"></path>
        </g>
    </g>
</svg>