<?xml version="1.0" encoding="UTF-8"?>
<svg width="250px" height="497px" viewBox="0 0 250 497" version="1.1" xmlns="http://www.w3.org/2000/svg" xmlns:xlink="http://www.w3.org/1999/xlink">
    <!-- Generator: Sketch 50.2 (55047) - http://www.bohemiancoding.com/sketch -->
    <title>graphics / mission L</title>
    <desc>Created with Sketch.</desc>
    <defs></defs>
    <g id="graphics-/-mission-L" stroke="none" stroke-width="1" fill="none" fill-rule="evenodd">
        <path d="M10.9271453,210.775436 C16.9232235,208.956579 130.18088,210.577864 135.307753,213.151269 C140.434626,215.724674 140.434626,263.296925 135.307753,265.450364 C130.18088,267.603804 10.2921939,268.448699 5.97288057,265.450364 C1.6535672,262.45203 4.93106712,212.594293 10.9271453,210.775436 Z" id="Path-2" fill="#E8E8E8"></path>
        <path d="M170.469686,240.269684 C171.922189,240.601772 188.277063,257.955357 188.247402,259.510911 C188.21774,261.066465 173.565504,275.718701 172.1393,275.619013 C170.713095,275.519326 152.611853,257.938539 152.892569,256.372282 C153.173284,254.806026 169.017183,239.937596 170.469686,240.269684 Z" id="Path-2" fill="#E8E8E8"></path>
        <path d="M150.973985,292.823142 C151.915649,293.038437 162.518592,304.288848 162.499362,305.297321 C162.480133,306.305794 152.981019,315.804908 152.056403,315.74028 C151.131788,315.675652 139.396667,304.277945 139.578656,303.262533 C139.760645,302.247121 150.032321,292.607848 150.973985,292.823142 Z" id="Path-2" fill="#E8E8E8"></path>
        <path d="M37.2573079,154.920711 C7.57728286,130.433306 -10.2169108,92.225213 14.9189692,59.2440687 C40.0548492,26.2629245 62.1627952,24.4431211 102.109413,32.563798 C142.056031,40.6844749 157.580445,91.0357491 139.315598,125.38693 C121.050751,159.73811 66.9373329,179.408116 37.2573079,154.920711 Z" id="Oval-6" fill="#FB7242"></path>
        <path d="M135.786072,220.826533 C162.380498,226.248939 189.569392,196.078041 189.569392,168.634987 C189.569392,141.191933 163.226302,114.973323 135.657635,123.144259 C108.088967,131.315196 94.9223996,139.769819 90.1893035,168.634987 C85.4562073,197.500155 109.191646,215.404127 135.786072,220.826533 Z" id="Oval-6" fill="#0CBA52" transform="translate(139.576454, 171.545670) rotate(28.000000) translate(-139.576454, -171.545670) "></path>
        <path d="M186.934938,132.263715 C171.174688,119.260773 161.725877,98.9720746 175.073162,81.458913 C188.420447,63.9457514 200.159883,62.9794262 221.371748,67.2915485 C242.583613,71.6036708 250.827158,98.340463 241.128428,116.581121 C231.429698,134.821779 202.695188,145.266656 186.934938,132.263715 Z" id="Oval-6" fill="#F5F400"></path>
    </g>
</svg>