<?xml version="1.0" encoding="UTF-8"?>
<svg width="776px" height="214px" viewBox="0 0 776 214" version="1.1" xmlns="http://www.w3.org/2000/svg" xmlns:xlink="http://www.w3.org/1999/xlink">
    <!-- Generator: Sketch 50 (54983) - http://www.bohemiancoding.com/sketch -->
    <title>graphics / mobile color bg</title>
    <desc>Created with Sketch.</desc>
    <defs></defs>
    <g id="graphics-/-mobile-color-bg" stroke="none" stroke-width="1" fill="none" fill-rule="evenodd">
        <g id="Group" transform="translate(0.000000, -34.000000)">
            <path d="M221.744317,190.097764 C244.985882,194.836547 268.746967,168.469409 268.746967,144.486206 C268.746967,120.503004 245.725052,97.5898738 221.632073,104.730669 C197.539093,111.871464 186.032485,119.260181 181.896108,144.486206 C177.759732,169.712231 198.502752,185.358981 221.744317,190.097764 Z" id="Oval-6" fill="#64426B" style="mix-blend-mode: multiply;" transform="translate(225.056831, 147.029928) rotate(28.000000) translate(-225.056831, -147.029928) "></path>
            <path d="M735.030394,113.468746 C750.007874,116.522543 765.320148,99.5308602 765.320148,84.0754483 C765.320148,68.6200364 750.484216,53.8542078 734.95806,58.4559256 C719.431905,63.0576434 712.016742,67.8191285 709.351151,84.0754483 C706.68556,100.331768 720.052913,110.414949 735.030394,113.468746 Z" id="Oval-6" fill="#64426B" style="mix-blend-mode: multiply;" transform="translate(737.165066, 85.714690) rotate(28.000000) translate(-737.165066, -85.714690) "></path>
            <path d="M282.536501,119.759442 C299.437447,123.20542 316.716182,104.0316 316.716182,86.5913445 C316.716182,69.1510894 299.974962,52.4889764 282.454878,57.6816645 C264.934795,62.8743526 256.567347,68.2473258 253.559431,86.5913445 C250.551515,104.935363 265.635554,116.313465 282.536501,119.759442 Z" id="Oval-6" fill="#FD6F77" style="mix-blend-mode: multiply;" transform="translate(284.945316, 88.441104) rotate(28.000000) translate(-284.945316, -88.441104) "></path>
            <path d="M132.630515,171.89693 C165.933467,178.687155 199.980844,140.905554 199.980844,106.539905 C199.980844,72.174257 166.992629,39.341921 132.46968,49.5740014 C97.9467308,59.8060818 81.4588559,70.3934103 75.5318216,106.539905 C69.6047874,142.686401 99.3275631,165.106705 132.630515,171.89693 Z" id="Oval-6" fill="#E82D55" style="mix-blend-mode: multiply;" transform="translate(137.377033, 110.184818) rotate(28.000000) translate(-137.377033, -110.184818) "></path>
            <path d="M303.524703,176.738651 C316.668346,179.418542 330.10579,164.507315 330.10579,150.944258 C330.10579,137.381202 317.086364,124.423296 303.461226,128.461581 C289.836088,132.499866 283.328834,136.678357 280.989617,150.944258 C278.650401,165.21016 290.381059,174.05876 303.524703,176.738651 Z" id="Oval-6" fill="#FB7242" style="mix-blend-mode: multiply;" transform="translate(305.398006, 152.382792) rotate(28.000000) translate(-305.398006, -152.382792) "></path>
            <path d="M736.62285,146.782287 C742.719578,148.025365 748.952586,141.108737 748.952586,134.817463 C748.952586,128.526188 742.913477,122.515616 736.593406,124.388789 C730.273335,126.261963 727.254922,128.200171 726.169867,134.817463 C725.084813,141.434754 730.526123,145.53921 736.62285,146.782287 Z" id="Oval-6" fill="#FB7242" style="mix-blend-mode: multiply;" transform="translate(737.491789, 135.484732) rotate(28.000000) translate(-737.491789, -135.484732) "></path>
            <path d="M240.842089,96.718379 C250.885086,98.7660716 261.152575,87.3724719 261.152575,77.0090033 C261.152575,66.6455346 251.204492,56.7444589 240.793587,59.8300938 C230.382682,62.9157288 225.41052,66.108494 223.623135,77.0090033 C221.835751,87.9095126 230.799092,94.6706865 240.842089,96.718379 Z" id="Oval-6" fill="#F5F400" style="mix-blend-mode: multiply;" transform="translate(242.273472, 78.108180) rotate(28.000000) translate(-242.273472, -78.108180) "></path>
            <path d="M51.7917469,155.597018 C56.7080982,156.599425 61.7343453,151.021913 61.7343453,145.948681 C61.7343453,140.875449 56.864457,136.028572 51.7680035,137.539084 C46.67155,139.049596 44.237526,140.612551 43.362547,145.948681 C42.487568,151.28481 46.8753955,154.59461 51.7917469,155.597018 Z" id="Oval-6" fill="#F5F400" style="mix-blend-mode: multiply;" transform="translate(52.492452, 146.486761) rotate(28.000000) translate(-52.492452, -146.486761) "></path>
            <path d="M37.3684174,115.660809 C52.6340358,118.773355 68.240888,101.454785 68.240888,85.7020416 C68.240888,69.9492978 53.1195409,54.8994034 37.2946927,59.5896493 C21.4698444,64.2798952 13.9120277,69.132982 11.1951562,85.7020416 C8.47828464,102.271101 22.102799,112.548263 37.3684174,115.660809 Z" id="Oval-6" fill="#1F88E9" style="mix-blend-mode: multiply;" transform="translate(39.544156, 87.372820) rotate(28.000000) translate(-39.544156, -87.372820) "></path>
            <path d="M423.407555,234.826736 C479.370801,246.237227 523.517723,194.374331 523.517723,136.6253 C523.517723,78.8762676 468.08337,23.7038583 410.070006,40.8981429 C352.056642,58.0924274 324.349939,75.8836812 314.389979,136.6253 C304.430018,197.366918 367.444309,223.416246 423.407555,234.826736 Z" id="Oval-6" fill="#AFF0FC" style="mix-blend-mode: multiply;" transform="translate(418.430589, 137.060321) rotate(28.000000) translate(-418.430589, -137.060321) "></path>
            <path d="M562.95874,202.506262 C604.98387,211.087653 647.94839,163.339791 647.94839,119.908963 C647.94839,76.4781343 606.32043,34.9850847 562.755782,47.9162456 C519.191133,60.8474065 498.385018,74.2275251 490.905669,119.908963 C483.426321,165.590401 520.933611,193.92487 562.95874,202.506262 Z" id="Oval-6" fill="#0CBA52" style="mix-blend-mode: multiply;" transform="translate(568.948390, 124.515352) rotate(28.000000) translate(-568.948390, -124.515352) "></path>
            <path d="M506.405301,236.863615 C522.364211,240.122371 538.679852,221.990271 538.679852,205.497552 C538.679852,189.004832 522.871765,173.247978 506.328228,178.158545 C489.784691,183.069113 481.883634,188.15017 479.043375,205.497552 C476.203117,222.844933 490.446391,233.604858 506.405301,236.863615 Z" id="Oval-6" fill="#E82D55" style="mix-blend-mode: multiply;" transform="translate(508.679852, 207.246813) rotate(28.000000) translate(-508.679852, -207.246813) "></path>
            <path d="M650.951337,138.552421 C654.278723,136.492563 717.128457,138.32867 719.973497,141.243053 C722.818537,144.157436 722.818537,198.033051 719.973497,200.471824 C717.128457,202.910596 650.598985,203.86744 648.202082,200.471824 C645.805178,197.076207 647.623951,140.612278 650.951337,138.552421 Z" id="Path-2" fill="#F5F200" style="mix-blend-mode: multiply;"></path>
            <path d="M643.038866,69.1953813 C645.74514,67.5158052 696.862923,69.0129382 699.176889,71.3892816 C701.490855,73.765625 701.490855,117.694972 699.176889,119.68351 C696.862923,121.672047 642.752286,122.452243 640.802805,119.68351 C638.853323,116.914776 640.332592,70.8749573 643.038866,69.1953813 Z" id="Path-2" fill="#FD6F77" style="mix-blend-mode: multiply;" transform="translate(670.412364, 94.979325) rotate(-45.000000) translate(-670.412364, -94.979325) "></path>
            <path d="M142.165991,153.923916 C143.456386,153.123067 167.830171,153.836924 168.933508,154.970003 C170.036844,156.103082 170.036844,177.049305 168.933508,177.997472 C167.830171,178.945638 142.029345,179.317649 141.099801,177.997472 C140.170256,176.677295 140.875596,154.724765 142.165991,153.923916 Z" id="Path-2" fill="#FD6F77" style="mix-blend-mode: multiply;" transform="translate(155.218117, 166.218117) rotate(-45.000000) translate(-155.218117, -166.218117) "></path>
            <path d="M536.107277,167.674239 C548.257542,167.674239 558.107277,156.18136 558.107277,144.473007 C558.107277,132.764655 548.759123,123.160813 536.107277,124.872645 C523.455431,126.584478 514.107277,132.764655 514.107277,144.473007 C514.107277,156.18136 523.957013,167.674239 536.107277,167.674239 Z" id="Oval-3" fill="#FFFFFF"></path>
            <path d="M105,141 C113.284271,141 120,133.248988 120,125.352658 C120,117.456327 113.626258,110.979318 105,112.133809 C96.3737416,113.288301 90,117.456327 90,125.352658 C90,133.248988 96.7157288,141 105,141 Z" id="Oval-3" fill="#FFFFFF"></path>
            <path d="M670.107277,166.674239 C675.07784,166.674239 679.107277,162.130542 679.107277,157.501659 C679.107277,152.872775 675.283032,149.075908 670.107277,149.752679 C664.931522,150.429449 661.107277,152.872775 661.107277,157.501659 C661.107277,162.130542 665.136714,166.674239 670.107277,166.674239 Z" id="Oval-3" fill="#FFFFFF"></path>
        </g>
    </g>
</svg>