<?xml version="1.0" encoding="UTF-8"?>
<svg width="32px" height="32px" viewBox="0 0 32 32" version="1.1" xmlns="http://www.w3.org/2000/svg" xmlns:xlink="http://www.w3.org/1999/xlink">
    <!-- Generator: Sketch 50 (54983) - http://www.bohemiancoding.com/sketch -->
    <title>icons / phone  - gray</title>
    <desc>Created with Sketch.</desc>
    <defs></defs>
    <g id="icons-/-phone----gray" stroke="none" stroke-width="1" fill="none" fill-rule="evenodd" fill-opacity="0.4">
        <path d="M10.62,14.79 C12.06,17.62 14.38,19.93 17.21,21.38 L19.41,19.18 C19.68,18.91 20.08,18.82 20.43,18.94 C21.55,19.31 22.76,19.51 24,19.51 C24.55,19.51 25,19.96 25,20.51 L25,24 C25,24.55 24.55,25 24,25 C14.61,25 7,17.39 7,8 C7,7.45 7.45,7 8,7 L11.5,7 C12.05,7 12.5,7.45 12.5,8 C12.5,9.25 12.7,10.45 13.07,11.57 C13.18,11.92 13.1,12.31 12.82,12.59 L10.62,14.79 Z" id="Page-1" fill="#000000"></path>
    </g>
</svg>