<?xml version="1.0" encoding="UTF-8"?>
<svg width="32px" height="32px" viewBox="0 0 32 32" version="1.1" xmlns="http://www.w3.org/2000/svg" xmlns:xlink="http://www.w3.org/1999/xlink">
    <!-- Generator: Sketch 50 (54983) - http://www.bohemiancoding.com/sketch -->
    <title>icons / social - pinterest - gray</title>
    <desc>Created with Sketch.</desc>
    <defs></defs>
    <g id="icons-/-social---pinterest---gray" stroke="none" stroke-width="1" fill="none" fill-rule="evenodd" fill-opacity="0.4">
        <path d="M16,3.86425781 C9.29727789,3.86425781 3.86425781,9.29727789 3.86425781,16 C3.86425781,21.1410038 7.06278436,25.5326255 11.5772805,27.3006514 C11.4710927,26.3404108 11.3755237,24.8674351 11.6197556,23.8192104 C11.8397159,22.8726225 13.0426713,17.786988 13.0426713,17.786988 C13.0426713,17.786988 12.6793575,17.0603605 12.6793575,15.9855888 C12.6793575,14.2979622 13.6578018,13.0381204 14.8751684,13.0381204 C15.9104989,13.0381204 16.4110983,13.8155664 16.4110983,14.7477431 C16.4110983,15.7891415 15.7481833,17.3455504 15.4061071,18.7881868 C15.1201587,19.9964516 16.0113773,20.9817222 17.2029554,20.9817222 C19.3600836,20.9817222 21.0181294,18.707029 21.0181294,15.4243107 C21.0181294,12.518559 18.9300233,10.4865806 15.9484231,10.4865806 C12.4958044,10.4865806 10.4691355,13.0768031 10.4691355,15.7534927 C10.4691355,16.7964081 10.8703735,17.9151718 11.3717313,18.5227174 C11.4710927,18.6433163 11.4855039,18.7479871 11.455923,18.8708615 C11.3641465,19.2546544 11.1593558,20.0783679 11.1191562,20.2475098 C11.0660623,20.4689871 10.9431879,20.5167715 10.7133673,20.4098253 C9.19715802,19.7036768 8.24981165,17.4881454 8.24981165,15.7079837 C8.24981165,11.8799155 11.0311721,8.36434271 16.2685033,8.36434271 C20.4780889,8.36434271 23.7501884,11.3641465 23.7501884,15.3734923 C23.7501884,19.5557725 21.1129399,22.921924 17.4524966,22.921924 C16.2229943,22.921924 15.0670648,22.282522 14.6711362,21.5278306 C14.6711362,21.5278306 14.0628322,23.8449988 13.9149278,24.4131033 C13.6411151,25.4666374 12.9015933,26.7879163 12.4063033,27.5941847 C13.5425122,27.9461212 14.7492601,28.1357422 16,28.1357422 C22.7027221,28.1357422 28.1357422,22.7019636 28.1357422,16 C28.1357422,9.29727789 22.7027221,3.86425781 16,3.86425781" id="Fill-11" fill="#000000"></path>
    </g>
</svg>