<?xml version="1.0" encoding="UTF-8"?>
<svg width="32px" height="32px" viewBox="0 0 32 32" version="1.1" xmlns="http://www.w3.org/2000/svg" xmlns:xlink="http://www.w3.org/1999/xlink">
    <!-- Generator: Sketch 50 (54983) - http://www.bohemiancoding.com/sketch -->
    <title>icons / social - twitter - gray</title>
    <desc>Created with Sketch.</desc>
    <defs></defs>
    <g id="icons-/-social---twitter---gray" stroke="none" stroke-width="1" fill="none" fill-rule="evenodd" fill-opacity="0.4">
        <path d="M27.0778696,9.13110517 C26.2629539,9.49252067 25.3864174,9.73692617 24.4669542,9.8470125 C25.4058037,9.28411825 26.1265576,8.39373447 26.4658173,7.33233609 C25.5878962,7.85299596 24.6144284,8.23102826 23.5793399,8.43527649 C22.7498844,7.55181638 21.5687066,7 20.261518,7 C17.7509958,7 15.7161296,9.03486618 15.7161296,11.5453884 C15.7161296,11.9012649 15.7562869,12.2481407 15.833832,12.5811692 C12.055586,12.3914607 8.70660758,10.5816137 6.46472371,7.83153259 C6.07353644,8.50312844 5.84920958,9.28411825 5.84920958,10.1170356 C5.84920958,11.6935549 6.65166276,13.0852123 7.87092078,13.9001281 C7.12593405,13.8765876 6.4252588,13.6723394 5.81251413,13.3316949 C5.81182177,13.3510811 5.81182177,13.369775 5.81182177,13.3891613 C5.81182177,15.5915803 7.37864795,17.4284295 9.45851798,17.8459267 C9.07702384,17.9497818 8.67545107,18.0051711 8.26072332,18.0051711 C7.96785214,18.0051711 7.68328937,17.9767841 7.40565026,17.9241642 C7.98377658,19.729857 9.6627662,21.0439692 11.6519362,21.0806647 C10.0961878,22.2999227 8.13609729,23.0262155 6.00637685,23.0262155 C5.63942242,23.0262155 5.27800692,23.0047522 4.92213036,22.9632102 C6.93345607,24.2523972 9.32281407,25.005 11.8901104,25.005 C20.2511325,25.005 24.8228308,18.078562 24.8228308,12.0722796 C24.8228308,11.874955 24.8186766,11.6790152 24.8096758,11.4837677 C25.6979825,10.8433284 26.4685868,10.0429523 27.0778696,9.13110517" id="Fill-1" fill="#000000"></path>
    </g>
</svg>