<?xml version="1.0" encoding="UTF-8"?>
<svg width="32px" height="32px" viewBox="0 0 32 32" version="1.1" xmlns="http://www.w3.org/2000/svg" xmlns:xlink="http://www.w3.org/1999/xlink">
    <!-- Generator: Sketch 50 (54983) - http://www.bohemiancoding.com/sketch -->
    <title>icons / social - instagram - gray</title>
    <desc>Created with Sketch.</desc>
    <defs></defs>
    <g id="icons-/-social---instagram---gray" stroke="none" stroke-width="1" fill="none" fill-rule="evenodd" fill-opacity="0.4">
        <path d="M23.8739014,24.5300598 L8.12609863,24.5300598 C7.76389917,24.5300598 7.46994019,24.2361008 7.46994019,23.8739014 L7.46994019,14.0315247 L10.094574,14.0315247 C9.75271542,14.5236435 9.63723154,15.4416092 9.63723154,16.0242779 C9.63723154,19.5380063 12.5026755,22.3968887 16.0242779,22.3968887 C19.5465364,22.3968887 22.4119803,19.5380063 22.4119803,16.0242779 C22.4119803,15.4416092 22.3293044,14.5374228 21.905426,14.0315247 L24.5300598,14.0315247 L24.5300598,23.8739014 C24.5300598,24.2361008 24.2361008,24.5300598 23.8739014,24.5300598 M16.0242779,11.9961212 C18.2545604,11.9961212 20.0622769,13.7999007 20.0622769,16.0242779 C20.0622769,18.2493112 18.2545604,20.0530907 16.0242779,20.0530907 C13.7946515,20.0530907 11.9869349,18.2493112 11.9869349,16.0242779 C11.9869349,13.7999007 13.7946515,11.9961212 16.0242779,11.9961212 M21.2492676,8.12609863 L23.2177429,8.12609863 C23.5799424,8.12609863 23.8739014,8.42005762 23.8739014,8.78225708 L23.8739014,10.7507324 C23.8739014,11.1129319 23.5799424,11.4068909 23.2177429,11.4068909 L21.2492676,11.4068909 C20.8870681,11.4068909 20.5931091,11.1129319 20.5931091,10.7507324 L20.5931091,8.78225708 C20.5931091,8.42005762 20.8870681,8.12609863 21.2492676,8.12609863 M24.0025084,5.50146484 L7.99749158,5.50146484 C6.61890268,5.50146484 5.50146484,6.61627805 5.50146484,7.99158615 L5.50146484,24.0084138 C5.50146484,25.383722 6.61890268,26.4985352 7.99749158,26.4985352 L24.0025084,26.4985352 C25.3810973,26.4985352 26.4985352,25.383722 26.4985352,24.0084138 L26.4985352,7.99158615 C26.4985352,6.61627805 25.3810973,5.50146484 24.0025084,5.50146484" id="Fill-23" fill="#000000"></path>
    </g>
</svg>