<?xml version="1.0" encoding="UTF-8"?>
<svg width="32px" height="32px" viewBox="0 0 32 32" version="1.1" xmlns="http://www.w3.org/2000/svg" xmlns:xlink="http://www.w3.org/1999/xlink">
    <!-- Generator: Sketch 50 (54983) - http://www.bohemiancoding.com/sketch -->
    <title>icons / social - tumblr - gray</title>
    <desc>Created with Sketch.</desc>
    <defs></defs>
    <g id="icons-/-social---tumblr---gray" stroke="none" stroke-width="1" fill="none" fill-rule="evenodd" fill-opacity="0.4">
        <path d="M21.3355091,22.4178869 C20.93607,22.6078722 20.1721008,22.7743611 19.6021448,22.7891303 C17.8828784,22.8347805 17.5492293,21.5814145 17.5344601,20.6710961 L17.5344601,13.9840158 L21.8484023,13.9840158 L21.8484023,10.7314403 L17.550572,10.7314403 L17.550572,5.25878906 L14.4033947,5.25878906 C14.3517026,5.25878906 14.2617449,5.30443924 14.2489897,5.41990735 C14.0650463,7.09486624 13.2809373,10.0339324 10.0223199,11.2087532 L10.0223199,13.9840158 L12.1960741,13.9840158 L12.1960741,21.0027313 C12.1960741,23.4060791 13.9690466,26.8197729 18.6488616,26.7398851 C20.2278209,26.7123607 21.9806536,26.0517757 22.3686801,25.4818197 L21.3355091,22.4178869 Z" id="Fill-35" fill="#000000"></path>
    </g>
</svg>